<?xml version="1.0" encoding="utf-8"?>
<!-- Generator: Adobe Illustrator 16.0.0, SVG Export Plug-In . SVG Version: 6.00 Build 0)  -->
<!DOCTYPE svg PUBLIC "-//W3C//DTD SVG 1.1//EN" "http://www.w3.org/Graphics/SVG/1.1/DTD/svg11.dtd">
<svg version="1.1" id="Layer_1" xmlns="http://www.w3.org/2000/svg" xmlns:xlink="http://www.w3.org/1999/xlink" x="0px" y="0px"
	   viewBox="0 0 305 305" enable-background="new 0 0 305 305" xml:space="preserve">
<g>
	<rect x="52.852" y="1.66" fill="#DF440A" width="231.202" height="231.202"/>
	<path fill="#FFFFFF" d="M285.361,0.353H51.543V234.17h233.818V0.353z M282.746,2.968v228.586H54.16V2.968H282.746"/>
	<rect x="184.721" y="35.742" fill="#FFFFFF" width="57.15" height="57.15"/>
	<path fill-rule="evenodd" clip-rule="evenodd" fill="#FFFFFF" d="M251.538,141.339l-9.386,12.684l10.686,16.567l8.048,0.006
		l-10.882-16.172l10.126-13.082L251.538,141.339z M209.164,150.218c1.718-1.865,10.861-5.359,12.207,0v20.346h7.334v-21.558
		c-1.6-8.786-9.912-10.314-20.056-4.403v-3.308h-6.929v29.313h7.336L209.164,150.218z M179.049,158.036
		c1.454-1.906,6.268-1.833,9.418-0.921v4.909C183.299,167.616,174.87,165.07,179.049,158.036 M173.492,143.644v5.569
		c5.025-1.419,15.814-5.281,14.823,2.962c-9.53-0.657-16.021,1.052-17.116,6.976c-1.809,12.82,11.917,14.032,17.715,7.757v3.7h6.59
		v-23.203c-1.605-7.196-12.438-8.138-22.015-3.778 M140.596,133.18v37.306h18.669c9.551-3.421,9.939-18.154,0-19.721
		c9.143-0.985,9.591-17.779-6.184-17.816L140.596,133.18z M147.61,138.854h6.784c5.63,1.059,3.61,9.374-0.232,9.618h-6.551V138.854z
		 M147.61,153.732h6.784c5.63,0.259,7.077,10.804-0.232,10.789h-6.551V153.732z M107.872,133.035v6.002h10.33v31.547h7.078V138.83
		h8.847l0.738-5.783L107.872,133.035L107.872,133.035z"/>
	<path fill="#FFFFFF" d="M103.908,168.582v-20.657H91.363l0.291,4.793h5.813v12.26c0,0-3.468,0.732-6.104,0.732
		c-3.738,0-7.877-1.869-7.877-13.876c0-11.739,5.436-13.82,10.051-13.82c4.412,0,9.01,1.816,9.01,1.816v-4.906
		c-2.868-1.273-5.872-1.905-9.01-1.895c-7.165,0-16.538,2.677-16.538,19.052c0,16.442,7.048,18.541,14.033,18.541
		c5.499,0,11.641-1.691,12.876-2.049 M234.213,133.032h7.234v37.575h-7.234V133.032z"/>
	<path fill-rule="evenodd" clip-rule="evenodd" d="M33.622,297.898v-11.673H27.1l0.146,2.715h3.005v6.924
		c-1.038,0.235-2.088,0.375-3.151,0.415c-1.95,0-4.098-1.061-4.098-7.848c0-6.63,2.831-7.813,5.214-7.813
		c2.299,0,4.686,1.035,4.686,1.035v-2.773c-1.482-0.706-3.044-1.058-4.686-1.055c-3.712,0-8.577,1.499-8.577,10.754
		s3.656,10.464,7.281,10.464c2.86,0,6.043-0.951,6.685-1.163 M50.834,298.756v-15.625h-3.372v11.701c0,0-1.883,1.357-3.566,1.357
		c-1.328,0-1.916-0.561-1.916-2.241v-10.817h-3.36v11.335c0,3.45,1.857,4.578,4.36,4.578c2.595,0,4.65-2.16,4.65-2.16l0.445,1.86
		L50.834,298.756z M67.015,298.756v-10.85c0-4.3-2.447-5.069-5.392-5.069c-1.752,0.029-3.462,0.313-5.13,0.854v2.741
		c0.291-0.088,2.77-0.823,4.569-0.823c1.622,0,2.592,0.175,2.592,2.035v1.453h-2.616c-2.477,0-5.926,0.738-5.926,5.008
		c0,4.215,2.595,4.961,4.511,4.961c0.797,0.004,1.557-0.163,2.279-0.5c0.722-0.336,1.338-0.811,1.848-1.424l0.381,1.625
		L67.015,298.756z M63.644,295.248c0,0-1.384,1.206-3.008,1.206c-1.207,0-2.177-0.384-2.177-2.528c0-2.306,1.235-2.837,3.622-2.89
		l1.564-0.035V295.248z M79.804,286.403v-3.39c-0.495-0.11-0.996-0.169-1.503-0.177c-2.241,0-3.122,2.122-3.122,2.122l-0.444-1.828
		h-2.663v15.625h3.372v-11.733c0.301-0.29,0.646-0.514,1.033-0.671c0.387-0.158,0.79-0.238,1.208-0.242
		c0.718,0.022,1.425,0.119,2.122,0.291 M92.732,298.741v-10.835c0-4.3-2.444-5.069-5.392-5.069
		c-1.752,0.029-3.461,0.313-5.127,0.854v2.741c0.29-0.088,2.767-0.823,4.566-0.823c1.619,0,2.595,0.175,2.595,2.035v1.453h-2.616
		c-2.477,0-5.926,0.738-5.926,5.008c0,4.215,2.596,4.961,4.511,4.961c0.797,0.004,1.558-0.163,2.28-0.5
		c0.723-0.337,1.339-0.811,1.85-1.424l0.378,1.625L92.732,298.741z M89.375,295.233c0,0-1.386,1.206-3.008,1.206
		c-1.209,0-2.18-0.384-2.18-2.529c0-2.305,1.238-2.836,3.625-2.889l1.563-0.035V295.233z M110.68,298.741v-11.248
		c0-3.566-1.796-4.65-4.389-4.65c-2.799,0-5.127,2.093-5.127,2.093l-0.582-1.799h-2.683v15.625h3.36v-11.679
		c0,0,1.944-1.357,3.92-1.357c1.235,0,2.151,0.207,2.151,1.828v11.202L110.68,298.741z M123.276,298.453v-2.674
		c0,0-1.886,0.523-2.709,0.523c-0.77,0-1.27-0.146-1.27-1.297v-9.489h3.197l0.352-2.386h-3.5v-4.715l-3.153,1.209l-0.207,3.506
		h-2.65v2.386h2.65v9.464c0,3.359,1.709,4.068,3.889,4.068c1.181-0.021,2.331-0.221,3.45-0.599 M137.396,283.128h-3.636
		l-2.802,11.795l-3.488-11.792h-3.852l5.927,15.357l-0.209,0.872c-0.439,1.828-1.087,2.616-2.18,2.616
		c-0.852,0-2.767-0.448-2.767-0.448v2.616c0.99,0.298,2.001,0.465,3.034,0.503c1.854,0,3.712-0.581,4.686-3.834L137.396,283.128z
		 M159.026,278.119h-13.37v3.003h5.011v17.622h3.397v-17.622h4.628L159.026,278.119z M167.484,286.383v-3.369
		c-0.496-0.111-0.998-0.17-1.506-0.177c-2.234,0-3.121,2.122-3.121,2.122l-0.441-1.828h-2.65v15.625h3.356v-11.733
		c0.302-0.29,0.646-0.514,1.033-0.671c0.387-0.158,0.79-0.238,1.208-0.242c0.717,0.022,1.424,0.119,2.121,0.291 M182.543,298.735
		v-15.604h-3.308v11.701c0,0-1.886,1.357-3.566,1.357c-1.325,0-1.915-0.561-1.915-2.241v-10.817h-3.359v11.335
		c0,3.45,1.857,4.578,4.359,4.578c2.592,0,4.65-2.16,4.65-2.16l0.444,1.86L182.543,298.735z M196.375,294.236
		c0-2.709-1.563-3.825-3.197-4.444l-1.505-0.581c-1.003-0.381-2.063-0.709-2.063-2.003c0-1.293,0.974-1.68,2.508-1.68
		c1.453,0,3.625,0.648,3.625,0.648v-2.681c-1.239-0.445-2.518-0.672-3.834-0.68c-3.006,0-5.523,1.268-5.523,4.599
		c0,2.77,1.977,3.778,3.273,4.301l1.383,0.562c1.181,0.474,2.064,0.796,2.064,2.124c0,1.619-1.234,1.884-2.683,1.884
		c-1.238,0-3.778-0.764-3.778-0.764v2.827c0,0,2.121,0.687,3.918,0.687c2.74,0,5.777-0.657,5.777-4.813 M208.002,298.444v-2.674
		c0,0-1.887,0.523-2.713,0.523c-0.768,0-1.267-0.146-1.267-1.296v-9.481h3.197l0.354-2.386h-3.552v-4.715l-3.153,1.209l-0.207,3.506
		h-2.65v2.386h2.65v9.464c0,3.359,1.709,4.068,3.893,4.068c1.18-0.021,2.328-0.221,3.447-0.599 M232.297,292.844
		c0-3.537-2.18-4.479-4.24-4.833c1.764-0.413,3.653-1.593,3.653-4.569c0-4.569-2.907-5.333-7.813-5.333h-4.403v20.636h4.243
		c5.337,0,8.548-0.531,8.548-5.897 M228.348,283.606c0,2.826-1.322,3.306-4.303,3.306h-1.18v-6.226h1.061
		c2.947,0,4.422,0.354,4.422,2.906 M228.929,292.795c0,3.063-1.71,3.389-4.837,3.389h-1.238v-6.804h1.18
		c3.125,0,4.896,0.531,4.896,3.421 M247.141,298.75v-10.844c0-4.3-2.444-5.069-5.392-5.069c-1.753,0.028-3.463,0.313-5.13,0.854
		v2.741c0.291-0.088,2.77-0.823,4.566-0.823c1.625,0,2.596,0.175,2.596,2.035v1.453h-2.617c-2.476,0-5.929,0.738-5.929,5.008
		c0,4.215,2.596,4.961,4.515,4.961c0.797,0.004,1.557-0.163,2.279-0.5c0.722-0.336,1.338-0.811,1.848-1.424l0.383,1.625
		L247.141,298.75z M243.781,295.242c0,0-1.384,1.206-3.006,1.206c-1.209,0-2.18-0.384-2.18-2.529c0-2.305,1.235-2.836,3.625-2.889
		l1.561-0.035V295.242z M265.092,298.75v-11.257c0-3.566-1.803-4.65-4.393-4.65c-2.802,0-5.129,2.093-5.129,2.093l-0.582-1.799
		h-2.683v15.625h3.343v-11.678c0,0,1.944-1.358,3.918-1.358c1.234,0,2.153,0.207,2.153,1.828v11.202L265.092,298.75z
		 M282.746,298.75l-5.246-9.051l4.65-6.574h-3.974l-4.069,6.685l4.793,9.245L282.746,298.75z M273.607,277.532h-3.357v21.218h3.357
		V277.532z"/>
</g>
</svg>
